<?xml version="1.0" encoding="UTF-8"?>
<svg version="1.1" xmlns="http://www.w3.org/2000/svg" width="85" height="85">
<path d="M0 0 C0.96164063 0.56976563 1.92328125 1.13953125 2.9140625 1.7265625 C3.91179688 2.3246875 4.90953125 2.9228125 5.9375 3.5390625 C6.93523438 4.12945313 7.93296875 4.71984375 8.9609375 5.328125 C14.38639122 8.55721542 14.38639122 8.55721542 16.9375 10.1640625 C17.69385742 10.51847412 18.45021484 10.87288574 19.22949219 11.23803711 C22.20636995 14.59489655 21.42206889 18.77296242 21.328125 23.08203125 C21.32246521 24.05441238 21.31680542 25.02679352 21.31097412 26.02864075 C21.28856929 29.1367805 21.23836481 32.24377074 21.1875 35.3515625 C21.16744033 37.45766565 21.14918864 39.56378686 21.1328125 41.66992188 C21.08869093 46.83507886 21.0196346 51.99937574 20.9375 57.1640625 C14.59012711 59.20319938 8.2386216 61.22800706 1.87988281 63.23144531 C-0.79524426 64.07935316 -3.46421562 64.94432503 -6.1328125 65.8125 C-7.62988824 66.28486983 -9.1272651 66.75628683 -10.625 67.2265625 C-11.30747803 67.45432373 -11.98995605 67.68208496 -12.69311523 67.91674805 C-15.52139721 68.78602831 -17.59507156 69.27400167 -20.50390625 68.58984375 C-24.18131753 66.5405993 -27.82688012 64.45417197 -31.4375 62.2890625 C-32.90340117 61.41625562 -34.36954442 60.54385517 -35.8359375 59.671875 C-36.80152588 59.09397217 -36.80152588 59.09397217 -37.78662109 58.50439453 C-40.86087426 56.69387641 -43.96480505 54.9341739 -47.0625 53.1640625 C-47.0625 37.9840625 -47.0625 22.8040625 -47.0625 7.1640625 C-40.875 5.3284375 -34.6875 3.4928125 -28.3125 1.6015625 C-25.39132324 0.72649048 -25.39132324 0.72649048 -22.41113281 -0.16625977 C-20.86286247 -0.62074642 -19.31437421 -1.07449163 -17.765625 -1.52734375 C-16.96560059 -1.76996948 -16.16557617 -2.01259521 -15.34130859 -2.26257324 C-14.18477783 -2.59774963 -14.18477783 -2.59774963 -13.00488281 -2.93969727 C-12.33869934 -3.1373317 -11.67251587 -3.33496613 -10.98614502 -3.53858948 C-6.71295984 -4.1991184 -3.5752205 -2.12525534 0 0 Z " fill="#745E39" transform="translate(55.0625,9.8359375)"/>
<path d="M0 0 C0.96164063 0.56976563 1.92328125 1.13953125 2.9140625 1.7265625 C3.91179688 2.3246875 4.90953125 2.9228125 5.9375 3.5390625 C6.93523438 4.12945313 7.93296875 4.71984375 8.9609375 5.328125 C14.38639122 8.55721542 14.38639122 8.55721542 16.9375 10.1640625 C17.69385742 10.54554443 18.45021484 10.92702637 19.22949219 11.32006836 C22.01750114 14.33005 21.42638014 17.88732698 21.328125 21.76953125 C21.32246521 22.60873611 21.31680542 23.44794098 21.31097412 24.31257629 C21.28858406 26.99281883 21.23838453 29.67172413 21.1875 32.3515625 C21.16743832 34.16860048 21.14918697 35.98565942 21.1328125 37.80273438 C21.08871086 42.25702562 21.01966659 46.71031735 20.9375 51.1640625 C18.9575 51.4940625 16.9775 51.8240625 14.9375 52.1640625 C14.9375 41.6040625 14.9375 31.0440625 14.9375 20.1640625 C11.3796875 21.2778125 11.3796875 21.2778125 7.75 22.4140625 C0.48585344 24.68602909 -6.78548815 26.93360853 -14.0625 29.1640625 C-14.3925 32.7940625 -14.7225 36.4240625 -15.0625 40.1640625 C-20.0625 41.1640625 -20.0625 41.1640625 -22.0625 40.1640625 C-22.0625 35.8740625 -22.0625 31.5840625 -22.0625 27.1640625 C-23.7125 26.8340625 -25.3625 26.5040625 -27.0625 26.1640625 C-30.68649683 24.54494547 -33.97576217 22.6668229 -37.0625 20.1640625 C-38.4375 16.4140625 -38.4375 16.4140625 -39.0625 13.1640625 C-40.3825 12.5040625 -41.7025 11.8440625 -43.0625 11.1640625 C-43.3925 16.1140625 -43.7225 21.0640625 -44.0625 26.1640625 C-45.0525 25.8340625 -46.0425 25.5040625 -47.0625 25.1640625 C-47.0625 19.2240625 -47.0625 13.2840625 -47.0625 7.1640625 C-41.72642335 5.56987134 -36.38926989 3.98193692 -31.046875 2.40942383 C-29.23005482 1.87265079 -27.41428527 1.33230825 -25.59960938 0.78833008 C-22.99096394 0.00702079 -20.37880906 -0.76137204 -17.765625 -1.52734375 C-16.95506653 -1.77311661 -16.14450806 -2.01888947 -15.30938721 -2.27210999 C-14.54890076 -2.49241379 -13.78841431 -2.71271759 -13.00488281 -2.93969727 C-12.33869934 -3.1373317 -11.67251587 -3.33496613 -10.98614502 -3.53858948 C-6.71295984 -4.1991184 -3.5752205 -2.12525534 0 0 Z " fill="#B6935E" transform="translate(55.0625,9.8359375)"/>
<path d="M0 0 C0 5.61 0 11.22 0 17 C-1.65 17 -3.3 17 -5 17 C-5 22.61 -5 28.22 -5 34 C-13.20509422 37.05679981 -20.32298951 39.2645979 -29 41 C-29 30.11 -29 19.22 -29 8 C-24.58625 6.68 -20.1725 5.36 -15.625 4 C-14.23361816 3.58234375 -12.84223633 3.1646875 -11.40869141 2.734375 C-10.31733887 2.40953125 -9.22598633 2.0846875 -8.1015625 1.75 C-6.42054443 1.24726563 -6.42054443 1.24726563 -4.70556641 0.734375 C-2 0 -2 0 0 0 Z " fill="#773007" transform="translate(70,30)"/>
<path d="M0 0 C0 12.54 0 25.08 0 38 C-2.97 38.495 -2.97 38.495 -6 39 C-6 28.44 -6 17.88 -6 7 C-9.650625 8.1446875 -9.650625 8.1446875 -13.375 9.3125 C-15.57272287 9.99854864 -17.77091433 10.68306791 -19.96923828 11.3671875 C-21.7081111 11.90904352 -23.44595784 12.45419044 -25.18359375 13 C-26.05113281 13.268125 -26.91867188 13.53625 -27.8125 13.8125 C-28.56144531 14.04582031 -29.31039062 14.27914062 -30.08203125 14.51953125 C-32 15 -32 15 -35 15 C-35 13.68 -35 12.36 -35 11 C-37.31 11 -39.62 11 -42 11 C-42 10.34 -42 9.68 -42 9 C-33.20842636 5.90514697 -24.3359609 3.12468425 -15.375 0.5625 C-13.95356689 0.13783447 -13.95356689 0.13783447 -12.50341797 -0.29541016 C-11.60252441 -0.54726074 -10.70163086 -0.79911133 -9.7734375 -1.05859375 C-8.97341309 -1.28861084 -8.17338867 -1.51862793 -7.34912109 -1.75561523 C-5 -2 -5 -2 0 0 Z " fill="#9B804B" transform="translate(76,23)"/>
<path d="M0 0 C0.88042969 0.52464844 1.76085938 1.04929687 2.66796875 1.58984375 C4.8125 3.0625 4.8125 3.0625 5.8125 5.0625 C1.87630561 6.33740096 -2.0616887 7.60665496 -6 8.875 C-7.10021484 9.23142578 -8.20042969 9.58785156 -9.33398438 9.95507812 C-29.00831568 16.28104306 -29.00831568 16.28104306 -35.1875 16.0625 C-35.5175 15.4025 -35.8475 14.7425 -36.1875 14.0625 C-33.28149739 12.80585022 -31.39145416 12.0625 -28.1875 12.0625 C-28.5175 11.0725 -28.8475 10.0825 -29.1875 9.0625 C-28.8575 8.4025 -28.5275 7.7425 -28.1875 7.0625 C-34.6225 7.5575 -34.6225 7.5575 -41.1875 8.0625 C-41.5175 7.4025 -41.8475 6.7425 -42.1875 6.0625 C-38.13113827 4.79764989 -34.07432421 3.53426418 -30.01708984 2.2722168 C-28.63773361 1.84292901 -27.25850044 1.41324557 -25.87939453 0.9831543 C-23.89387945 0.36402288 -21.90792204 -0.25367118 -19.921875 -0.87109375 C-18.72788086 -1.24290771 -17.53388672 -1.61472168 -16.30371094 -1.99780273 C-9.22664829 -4.13189974 -6.45449146 -3.89938997 0 0 Z " fill="#9A804B" transform="translate(55.1875,9.9375)"/>
<path d="M0 0 C0.98613281 0.56847656 1.97226563 1.13695312 2.98828125 1.72265625 C3.98214844 2.28855469 4.97601563 2.85445312 6 3.4375 C6.75925781 3.88222656 7.51851562 4.32695312 8.30078125 4.78515625 C7.30078125 6.78515625 7.30078125 6.78515625 4.80053711 7.65478516 C3.71651611 7.93757324 2.63249512 8.22036133 1.515625 8.51171875 C0.34580078 8.82109375 -0.82402344 9.13046875 -2.02929688 9.44921875 C-3.26099609 9.76632813 -4.49269531 10.0834375 -5.76171875 10.41015625 C-6.99728516 10.735 -8.23285156 11.05984375 -9.50585938 11.39453125 C-12.56850278 12.19862296 -15.63292068 12.99513691 -18.69921875 13.78515625 C-18.69921875 13.12515625 -18.69921875 12.46515625 -18.69921875 11.78515625 C-19.65183594 12.01332031 -20.60445312 12.24148437 -21.5859375 12.4765625 C-23.46732422 12.90775391 -23.46732422 12.90775391 -25.38671875 13.34765625 C-26.62808594 13.63769531 -27.86945312 13.92773438 -29.1484375 14.2265625 C-32.46033329 14.74757581 -34.51782028 14.70368621 -37.69921875 13.78515625 C-36.12689034 10.40282188 -35.17588824 9.00742348 -31.74414062 7.40722656 C-30.56400391 7.06272461 -29.38386719 6.71822266 -28.16796875 6.36328125 C-27.53564331 6.17296326 -26.90331787 5.98264526 -26.25183105 5.78656006 C-24.23904407 5.18503394 -22.2198285 4.60978973 -20.19921875 4.03515625 C-18.84063411 3.63454381 -17.48255368 3.23221726 -16.125 2.828125 C-13.63754923 2.08980934 -11.14770957 1.36384489 -8.65429688 0.64550781 C-2.52845913 -1.13798956 -2.52845913 -1.13798956 0 0 Z " fill="#B6935D" transform="translate(63.69921875,15.21484375)"/>
<path d="M0 0 C4.94192475 2.47096238 9.36705707 4.73241698 13.9375 7.6875 C14.87464844 8.28949219 15.81179687 8.89148438 16.77734375 9.51171875 C19 11 19 11 20 12 C20.07205511 13.68608966 20.08386068 15.37500659 20.0625 17.0625 C20.05347656 17.98160156 20.04445313 18.90070312 20.03515625 19.84765625 C20.02355469 20.55792969 20.01195313 21.26820312 20 22 C15.25 20.125 15.25 20.125 13 19 C12.896875 18.05125 12.79375 17.1025 12.6875 16.125 C12.3471875 14.578125 12.3471875 14.578125 12 13 C10.35 12.01 8.7 11.02 7 10 C6.67 18.58 6.34 27.16 6 36 C4.02 35.01 2.04 34.02 0 33 C0 22.11 0 11.22 0 0 Z " fill="#2B2213" transform="translate(12,26)"/>
<path d="M0 0 C0 5.61 0 11.22 0 17 C-1.65 17 -3.3 17 -5 17 C-5 13.7 -5 10.4 -5 7 C-7.97 7.99 -10.94 8.98 -14 10 C-14.33 11.98 -14.66 13.96 -15 16 C-16.76949612 16.50471197 -18.54065223 17.00360685 -20.3125 17.5 C-21.29863281 17.7784375 -22.28476562 18.056875 -23.30078125 18.34375 C-26 19 -26 19 -29 19 C-29 15.37 -29 11.74 -29 8 C-25.19243977 6.85720004 -21.38383436 5.71796126 -17.57421875 4.58203125 C-16.27802682 4.19499198 -14.98212614 3.80697591 -13.68652344 3.41796875 C-11.82563669 2.85941775 -9.96361456 2.3046538 -8.1015625 1.75 C-6.42054443 1.24726563 -6.42054443 1.24726563 -4.70556641 0.734375 C-2 0 -2 0 0 0 Z " fill="#2B2112" transform="translate(70,30)"/>
<path d="M0 0 C0 8.91 0 17.82 0 27 C-4.95 28.485 -4.95 28.485 -10 30 C-10 21.09 -10 12.18 -10 3 C-3 0 -3 0 0 0 Z " fill="#911111" transform="translate(65,37)"/>
<path d="M0 0 C0 12.54 0 25.08 0 38 C-2.97 38.495 -2.97 38.495 -6 39 C-6.33 26.46 -6.66 13.92 -7 1 C-2 0 -2 0 0 0 Z " fill="#9D824C" transform="translate(76,23)"/>
<path d="M0 0 C0.99 0.33 1.98 0.66 3 1 C3 2.98 3 4.96 3 7 C4.175625 7.4640625 4.175625 7.4640625 5.375 7.9375 C8 9 8 9 10 10 C10 11.98 10 13.96 10 16 C8.02 15.01 6.04 14.02 4 13 C3.67 14.65 3.34 16.3 3 18 C3.78375 18.309375 4.5675 18.61875 5.375 18.9375 C8 20 8 20 10 21 C10 24.63 10 28.26 10 32 C2.53417015 29.01366806 2.53417015 29.01366806 0 27 C-0.56762695 24.1809082 -0.56762695 24.1809082 -0.48828125 20.80078125 C-0.47216797 19.59228516 -0.45605469 18.38378906 -0.43945312 17.13867188 C-0.39755859 15.87603516 -0.35566406 14.61339844 -0.3125 13.3125 C-0.27866211 11.40114258 -0.27866211 11.40114258 -0.24414062 9.45117188 C-0.18512262 6.2996104 -0.10282975 3.15038721 0 0 Z " fill="#5D710D" transform="translate(22,38)"/>
<path d="M0 0 C5 2 5 2 6 3 C6.04063832 4.66617115 6.042721 6.33388095 6 8 C3.525 7.01 3.525 7.01 1 6 C0.67 16.56 0.34 27.12 0 38 C0.99 38.33 1.98 38.66 3 39 C3 40.98 3 42.96 3 45 C-0.465 43.515 -0.465 43.515 -4 42 C-4 32.76 -4 23.52 -4 14 C-3.34 14 -2.68 14 -2 14 C-1.34 9.38 -0.68 4.76 0 0 Z " fill="#865E3A" transform="translate(12,21)"/>
<path d="M0 0 C0.58007812 0.34933594 1.16015625 0.69867188 1.7578125 1.05859375 C2.53898437 1.51363281 3.32015625 1.96867187 4.125 2.4375 C5.27355469 3.11619141 5.27355469 3.11619141 6.4453125 3.80859375 C9.45537548 5.35125207 9.45537548 5.35125207 15 6 C15 11.28 15 16.56 15 22 C10 23 10 23 7 21 C6.70703125 18.1796875 6.70703125 18.1796875 6.8125 14.875 C6.85310547 13.23144531 6.85310547 13.23144531 6.89453125 11.5546875 C6.92933594 10.71164063 6.96414062 9.86859375 7 9 C6.21625 8.690625 5.4325 8.38125 4.625 8.0625 C2 7 2 7 0 6 C0 4.02 0 2.04 0 0 Z " fill="#B8945F" transform="translate(25,50)"/>
<path d="M0 0 C2.21138855 -0.08811445 4.42042185 -0.2429784 6.625 -0.4375 C8.40777344 -0.59025391 8.40777344 -0.59025391 10.2265625 -0.74609375 C11.59941406 -0.87177734 11.59941406 -0.87177734 13 -1 C13 1 13 3 13 5 C8.87468427 6.63093878 6.27312797 7.34940883 2 6 C0.68 5.34 -0.64 4.68 -2 4 C-2.33 8.95 -2.66 13.9 -3 19 C-3.99 18.67 -4.98 18.34 -6 18 C-6 12.06 -6 6.12 -6 0 C-2 -1 -2 -1 0 0 Z " fill="#B9955F" transform="translate(14,17)"/>
<path d="M0 0 C1.32 0 2.64 0 4 0 C4 8.91 4 17.82 4 27 C2.35 27.33 0.7 27.66 -1 28 C-1.02886338 23.52084672 -1.04675187 19.04171709 -1.0625 14.5625 C-1.07087891 13.28310547 -1.07925781 12.00371094 -1.08789062 10.68554688 C-1.09111328 9.47060547 -1.09433594 8.25566406 -1.09765625 7.00390625 C-1.10289307 5.87799072 -1.10812988 4.7520752 -1.11352539 3.59204102 C-1 1 -1 1 0 0 Z " fill="#B71615" transform="translate(56,39)"/>
<path d="M0 0 C5 2 5 2 6 3 C6.08700342 4.63472882 6.10701063 6.27314055 6.09765625 7.91015625 C6.09443359 8.89951172 6.09121094 9.88886719 6.08789062 10.90820312 C6.07951172 11.94912109 6.07113281 12.99003906 6.0625 14.0625 C6.05798828 15.10728516 6.05347656 16.15207031 6.04882812 17.22851562 C6.03699913 19.8190666 6.02051689 22.40950559 6 25 C4.02 24.01 2.04 23.02 0 22 C0 14.74 0 7.48 0 0 Z " fill="#BA1616" transform="translate(12,37)"/>
<path d="M0 0 C0.66 0 1.32 0 2 0 C2 0.66 2 1.32 2 2 C4.31 2 6.62 2 9 2 C8.67 7.28 8.34 12.56 8 18 C3 19 3 19 1 18 C0.67 12.06 0.34 6.12 0 0 Z " fill="#A0844E" transform="translate(32,32)"/>
<path d="M0 0 C0.99 0.99 1.98 1.98 3 3 C-0.93619439 4.27490096 -4.8741887 5.54415496 -8.8125 6.8125 C-10.46282227 7.34713867 -10.46282227 7.34713867 -12.14648438 7.89257812 C-31.82081568 14.21854306 -31.82081568 14.21854306 -38 14 C-38.33 13.34 -38.66 12.68 -39 12 C-26.04708002 7.83055862 -13.07703138 3.76354882 0 0 Z " fill="#76603A" transform="translate(58,12)"/>
<path d="M0 0 C-2.10405532 0.70232452 -4.20835283 1.40390749 -6.31298828 2.10449219 C-8.09065827 2.69694117 -9.86768879 3.29131269 -11.64404297 3.88769531 C-14.40508846 4.8108777 -17.17084485 5.71878124 -19.9375 6.625 C-20.86240234 6.93695313 -21.78730469 7.24890625 -22.74023438 7.5703125 C-28.8379604 9.55303491 -34.59653384 10.64362412 -41 11 C-41 10.34 -41 9.68 -41 9 C-32.18831353 5.89806676 -23.29710805 3.11957786 -14.3125 0.5625 C-13.35649902 0.27938965 -12.40049805 -0.0037207 -11.41552734 -0.29541016 C-10.51141113 -0.54726074 -9.60729492 -0.79911133 -8.67578125 -1.05859375 C-7.87052002 -1.28861084 -7.06525879 -1.51862793 -6.2355957 -1.75561523 C-3.52995702 -2.05138288 -2.27969915 -1.41344606 0 0 Z " fill="#6F5936" transform="translate(75,23)"/>
<path d="M0 0 C1.98 0.99 1.98 0.99 4 2 C4 10.91 4 19.82 4 29 C2.68 28.34 1.36 27.68 0 27 C0 18.09 0 9.18 0 0 Z " fill="#747F10" transform="translate(18,35)"/>
<path d="M0 0 C0 0.66 0 1.32 0 2 C-0.639375 2.268125 -1.27875 2.53625 -1.9375 2.8125 C-4.33131686 3.88667752 -4.33131686 3.88667752 -5 7 C-7.546875 7.984375 -7.546875 7.984375 -10.75 8.75 C-11.79671875 9.01296875 -12.8434375 9.2759375 -13.921875 9.546875 C-16.98145625 9.99727021 -19.0415104 9.8108453 -22 9 C-20.87091509 6.38017017 -19.88403395 4.46691218 -17.30078125 3.10253906 C-15.21843513 2.3487625 -13.13379793 1.71729978 -11 1.125 C-10.27554688 0.90070312 -9.55109375 0.67640625 -8.8046875 0.4453125 C-3.42678266 -1.14226089 -3.42678266 -1.14226089 0 0 Z " fill="#967C49" transform="translate(48,20)"/>
<path d="M0 0 C0 6.93 0 13.86 0 21 C-1.65 21.33 -3.3 21.66 -5 22 C-5 15.07 -5 8.14 -5 1 C-3 0 -3 0 0 0 Z " fill="#642805" transform="translate(55,46)"/>
<path d="M0 0 C0 5.28 0 10.56 0 16 C-1.98 16.33 -3.96 16.66 -6 17 C-6 11.72 -6 6.44 -6 1 C-4 0 -4 0 0 0 Z " fill="#B8945E" transform="translate(76,45)"/>
<path d="M0 0 C0.66 0 1.32 0 2 0 C2 4.29 2 8.58 2 13 C4.31 13 6.62 13 9 13 C9 9.37 9 5.74 9 2 C9.33 2 9.66 2 10 2 C10 12.56 10 23.12 10 34 C9.67 34 9.34 34 9 34 C9 29.05 9 24.1 9 19 C7.02 19 5.04 19 3 19 C2.34 18.67 1.68 18.34 1 18 C0.67 12.06 0.34 6.12 0 0 Z " fill="#80643B" transform="translate(31,37)"/>
<path d="M0 0 C1.32 0 2.64 0 4 0 C4 6.93 4 13.86 4 21 C2.68 21.33 1.36 21.66 0 22 C0 14.74 0 7.48 0 0 Z " fill="#863608" transform="translate(41,49)"/>
<path d="M0 0 C0 0.66 0 1.32 0 2 C-3.08809695 3.76462683 -4.23312136 4 -8 4 C-7.67 4.99 -7.34 5.98 -7 7 C-11.12168689 8.62950412 -13.70700357 9.26264601 -18 8 C-17.34 7.34 -16.68 6.68 -16 6 C-16.66 5.01 -17.32 4.02 -18 3 C-15.75376301 2.30030318 -13.50283586 1.61564957 -11.25 0.9375 C-9.99703125 0.55464844 -8.7440625 0.17179688 -7.453125 -0.22265625 C-4.3261992 -0.92656828 -2.90533954 -1.16653785 0 0 Z " fill="#B6925C" transform="translate(50,7)"/>
<path d="M0 0 C1.96053351 1.12116136 3.91836125 2.24705531 5.875 3.375 C6.96554688 4.00148438 8.05609375 4.62796875 9.1796875 5.2734375 C12 7 12 7 14 9 C14.125 11.625 14.125 11.625 14 14 C8.92802327 12.6052064 3.84461857 10.69159892 0 7 C-0.5 3.1875 -0.5 3.1875 0 0 Z " fill="#695432" transform="translate(15,60)"/>
<path d="M0 0 C1.65 0 3.3 0 5 0 C5 5.28 5 10.56 5 16 C3.35 16.33 1.7 16.66 0 17 C0 11.39 0 5.78 0 0 Z " fill="#325A8B" transform="translate(65,47)"/>
<path d="M0 0 C5 2 5 2 7 3 C7 6.63 7 10.26 7 14 C2 12 2 12 0 11 C0 7.37 0 3.74 0 0 Z " fill="#168A64" transform="translate(25,56)"/>
<path d="M0 0 C0 1.98 0 3.96 0 6 C-1.45706726 6.50367757 -2.91570096 7.00282556 -4.375 7.5 C-5.59316406 7.91765625 -5.59316406 7.91765625 -6.8359375 8.34375 C-9 9 -9 9 -11 9 C-11 7.02 -11 5.04 -11 3 C-9.73160474 2.49384702 -8.46016898 1.99530901 -7.1875 1.5 C-6.12595703 1.08234375 -6.12595703 1.08234375 -5.04296875 0.65625 C-3 0 -3 0 0 0 Z " fill="#78613C" transform="translate(76,61)"/>
<path d="M0 0 C2.05444446 1.29136509 3.60508605 2.54273121 5.1875 4.375 C-0.3540502 6.33763236 -4.02108017 6.39103857 -9.8125 5.375 C-10.1425 4.385 -10.4725 3.395 -10.8125 2.375 C-3.825 -0.85 -3.825 -0.85 0 0 Z " fill="#B08D57" transform="translate(52.8125,8.625)"/>
<path d="M0 0 C0.99 0.33 1.98 0.66 3 1 C3 8.26 3 15.52 3 23 C2.01 22.34 1.02 21.68 0 21 C-0.34057617 18.84521484 -0.34057617 18.84521484 -0.29296875 16.2109375 C-0.2784668 14.79941406 -0.2784668 14.79941406 -0.26367188 13.359375 C-0.23853516 12.37453125 -0.21339844 11.3896875 -0.1875 10.375 C-0.17396484 9.38242187 -0.16042969 8.38984375 -0.14648438 7.3671875 C-0.11105743 4.91091928 -0.06166196 2.45572715 0 0 Z " fill="#901111" transform="translate(15,39)"/>
<path d="M0 0 C0 1.98 0 3.96 0 6 C-1.29009643 6.50403768 -2.58213789 7.00309926 -3.875 7.5 C-4.95394531 7.91765625 -4.95394531 7.91765625 -6.0546875 8.34375 C-8 9 -8 9 -10 9 C-10 7.35 -10 5.7 -10 4 C-10.66 3.67 -11.32 3.34 -12 3 C-10.37604003 2.49663233 -8.75079459 1.99741024 -7.125 1.5 C-6.22007813 1.2215625 -5.31515625 0.943125 -4.3828125 0.65625 C-2 0 -2 0 0 0 Z " fill="#6B5131" transform="translate(65,64)"/>
<path d="M0 0 C1.47919922 0.85271484 1.47919922 0.85271484 2.98828125 1.72265625 C3.98214844 2.28855469 4.97601563 2.85445312 6 3.4375 C6.75925781 3.88222656 7.51851562 4.32695312 8.30078125 4.78515625 C7.97078125 5.44515625 7.64078125 6.10515625 7.30078125 6.78515625 C4.23828125 7.41015625 4.23828125 7.41015625 1.30078125 7.78515625 C1.30078125 7.12515625 1.30078125 6.46515625 1.30078125 5.78515625 C0.57890625 5.49640625 -0.14296875 5.20765625 -0.88671875 4.91015625 C-3.49088542 3.86848958 -6.09505208 2.82682292 -8.69921875 1.78515625 C-3.59468311 -1.61786751 -3.59468311 -1.61786751 0 0 Z " fill="#9E824C" transform="translate(63.69921875,15.21484375)"/>
<path d="M0 0 C1.32 0 2.64 0 4 0 C4 3.63 4 7.26 4 11 C2.35 11 0.7 11 -1 11 C-1.02688151 9.35425434 -1.04634123 7.70838587 -1.0625 6.0625 C-1.07410156 5.14597656 -1.08570312 4.22945312 -1.09765625 3.28515625 C-1 1 -1 1 0 0 Z " fill="#3A2C18" transform="translate(66,36)"/>
<path d="M0 0 C0 1.65 0 3.3 0 5 C-3.50776784 6.60355101 -6.14354879 7.22036864 -10 7 C-10 5.35 -10 3.7 -10 2 C-6.38026598 0.68373308 -3.90432869 0 0 0 Z " fill="#AE8B57" transform="translate(70,25)"/>
<path d="M0 0 C0 1.98 0 3.96 0 6 C-3.3 6.66 -6.6 7.32 -10 8 C-9.67 6.35 -9.34 4.7 -9 3 C-3.31034483 0 -3.31034483 0 0 0 Z " fill="#372914" transform="translate(55,40)"/>
<path d="M0 0 C0.99 0.33 1.98 0.66 3 1 C3 6.28 3 11.56 3 17 C2.01 16.67 1.02 16.34 0 16 C0 10.72 0 5.44 0 0 Z " fill="#B1905A" transform="translate(8,40)"/>
<path d="M0 0 C-1 2 -1 2 -2.890625 2.8515625 C-10.71069182 5.41509434 -10.71069182 5.41509434 -15 5 C-15.33 4.34 -15.66 3.68 -16 3 C-14.08802961 2.29954544 -12.17019565 1.615081 -10.25 0.9375 C-9.18265625 0.55464844 -8.1153125 0.17179687 -7.015625 -0.22265625 C-4.07719958 -0.98010011 -2.77651052 -1.07151741 0 0 Z " fill="#6F5936" transform="translate(35,21)"/>
<path d="M0 0 C3.465 1.98 3.465 1.98 7 4 C7 5.65 7 7.3 7 9 C2.25 7.125 2.25 7.125 0 6 C0 4.02 0 2.04 0 0 Z " fill="#A5ACA5" transform="translate(25,50)"/>
<path d="M0 0 C4.75 1.875 4.75 1.875 7 3 C7 4.98 7 6.96 7 9 C3.535 7.02 3.535 7.02 0 5 C0 3.35 0 1.7 0 0 Z " fill="#168862" transform="translate(25,45)"/>
<path d="M0 0 C3.465 1.98 3.465 1.98 7 4 C7 5.65 7 7.3 7 9 C2.25 7.125 2.25 7.125 0 6 C0 4.02 0 2.04 0 0 Z " fill="#3F3219" transform="translate(25,39)"/>
<path d="M0 0 C0 0.66 0 1.32 0 2 C-0.928125 2.4021875 -0.928125 2.4021875 -1.875 2.8125 C-4.2995233 3.95556848 -4.2995233 3.95556848 -6 7 C-6.33 6.34 -6.66 5.68 -7 5 C-8.32 5 -9.64 5 -11 5 C-10.67 3.68 -10.34 2.36 -10 1 C-3.375 -1.125 -3.375 -1.125 0 0 Z " fill="#9E824D" transform="translate(48,20)"/>
<path d="M0 0 C0.99 0.33 1.98 0.66 3 1 C3 4.63 3 8.26 3 12 C1.68 11.34 0.36 10.68 -1 10 C-0.67 6.7 -0.34 3.4 0 0 Z " fill="#106A4F" transform="translate(29,58)"/>
<path d="M0 0 C4.875 1.875 4.875 1.875 6 3 C6.04063832 4.66617115 6.042721 6.33388095 6 8 C3.69 7.01 1.38 6.02 -1 5 C-0.67 3.35 -0.34 1.7 0 0 Z " fill="#887042" transform="translate(12,21)"/>
<path d="M0 0 C0.33 0 0.66 0 1 0 C1 5.28 1 10.56 1 16 C-0.32 15.34 -1.64 14.68 -3 14 C-3 12.35 -3 10.7 -3 9 C-2.34 9 -1.68 9 -1 9 C-0.67 6.03 -0.34 3.06 0 0 Z " fill="#795836" transform="translate(11,26)"/>
<path d="M0 0 C0 0.66 0 1.32 0 2 C-4.17737474 3.59138085 -7.53160785 4.21278058 -12 4 C-12 3.34 -12 2.68 -12 2 C-10.75579353 1.4654744 -9.50429064 0.94791389 -8.25 0.4375 C-7.55390625 0.14746094 -6.8578125 -0.14257812 -6.140625 -0.44140625 C-3.69987216 -1.07831803 -2.3596345 -0.80248831 0 0 Z " fill="#A0844E" transform="translate(54,9)"/>
<path d="M0 0 C1.2065625 0.0309375 1.2065625 0.0309375 2.4375 0.0625 C2.4375 1.7125 2.4375 3.3625 2.4375 5.0625 C0.4575 5.3925 -1.5225 5.7225 -3.5625 6.0625 C-3.605221 4.39638095 -3.60313832 2.72867115 -3.5625 1.0625 C-2.5625 0.0625 -2.5625 0.0625 0 0 Z " fill="#745F39" transform="translate(73.5625,39.9375)"/>
<path d="M0 0 C4.875 1.875 4.875 1.875 6 3 C6.04063832 4.66617115 6.042721 6.33388095 6 8 C4.02 7.01 2.04 6.02 0 5 C0 3.35 0 1.7 0 0 Z " fill="#372914" transform="translate(12,32)"/>
<path d="M0 0 C0 0.99 0 1.98 0 3 C-3.3 3.33 -6.6 3.66 -10 4 C-10 3.34 -10 2.68 -10 2 C-8.71211992 1.46987262 -7.41953322 0.9511671 -6.125 0.4375 C-5.40570313 0.14746094 -4.68640625 -0.14257812 -3.9453125 -0.44140625 C-2 -1 -2 -1 0 0 Z " fill="#78623B" transform="translate(44,30)"/>
<path d="M0 0 C1.98 0.99 1.98 0.99 4 2 C4 3.65 4 5.3 4 7 C3.34 7 2.68 7 2 7 C1.34 8.32 0.68 9.64 0 11 C0 7.37 0 3.74 0 0 Z " fill="#998651" transform="translate(32,60)"/>
<path d="M0 0 C1.32 0 2.64 0 4 0 C4 1.65 4 3.3 4 5 C2.35 5.33 0.7 5.66 -1 6 C-1.042721 4.33388095 -1.04063832 2.66617115 -1 1 C-0.67 0.67 -0.34 0.34 0 0 Z " fill="#B7955F" transform="translate(37,34)"/>
<path d="M0 0 C1.65 0 3.3 0 5 0 C5 1.65 5 3.3 5 5 C3.35 5 1.7 5 0 5 C0 3.35 0 1.7 0 0 Z " fill="#B6935E" transform="translate(60,27)"/>
<path d="M0 0 C1.32 0 2.64 0 4 0 C4 1.65 4 3.3 4 5 C2.68 5 1.36 5 0 5 C0 3.35 0 1.7 0 0 Z " fill="#BA9761" transform="translate(36,45)"/>
<path d="M0 0 C0.99 0.33 1.98 0.66 3 1 C3 2.65 3 4.3 3 6 C1.68 5.34 0.36 4.68 -1 4 C-0.67 2.68 -0.34 1.36 0 0 Z " fill="#808886" transform="translate(29,53)"/>
<path d="M0 0 C0.99 0.33 1.98 0.66 3 1 C3 2.98 3 4.96 3 7 C2.01 6.67 1.02 6.34 0 6 C0 4.02 0 2.04 0 0 Z " fill="#11694F" transform="translate(29,47)"/>
</svg>
