<?xml version="1.0" standalone="no"?>
<!DOCTYPE svg PUBLIC "-//W3C//DTD SVG 20010904//EN"
 "http://www.w3.org/TR/2001/REC-SVG-20010904/DTD/svg10.dtd">
<svg version="1.0" xmlns="http://www.w3.org/2000/svg"
 width="512.000000pt" height="512.000000pt" viewBox="0 0 512.000000 512.000000"
 preserveAspectRatio="xMidYMid meet">

<g transform="translate(0.000000,512.000000) scale(0.100000,-0.100000)"
fill="#000000" stroke="none">
<path d="M2540 5070 c0 -5 -9 -10 -20 -10 -11 0 -20 -4 -20 -10 0 -5 -9 -10
-20 -10 -11 0 -20 -4 -20 -10 0 -5 -9 -10 -20 -10 -11 0 -20 -4 -20 -10 0 -5
-9 -10 -20 -10 -11 0 -20 -4 -20 -10 0 -5 -9 -10 -20 -10 -11 0 -20 -4 -20
-10 0 -5 -9 -10 -20 -10 -11 0 -20 -4 -20 -10 0 -5 -9 -10 -20 -10 -11 0 -20
-4 -20 -10 0 -5 -9 -10 -20 -10 -11 0 -20 -4 -20 -10 0 -5 -9 -10 -20 -10 -11
0 -20 -4 -20 -10 0 -5 -9 -10 -20 -10 -11 0 -20 -4 -20 -10 0 -5 -9 -10 -20
-10 -11 0 -20 -4 -20 -10 0 -5 -9 -10 -20 -10 -11 0 -20 -4 -20 -10 0 -5 -9
-10 -20 -10 -11 0 -20 -4 -20 -10 0 -5 -9 -10 -20 -10 -11 0 -20 -4 -20 -10 0
-5 -9 -10 -20 -10 -11 0 -20 -4 -20 -10 0 -5 -9 -10 -20 -10 -11 0 -20 -4 -20
-10 0 -5 -9 -10 -20 -10 -11 0 -20 -4 -20 -10 0 -5 -9 -10 -20 -10 -11 0 -20
-4 -20 -10 0 -5 -9 -10 -20 -10 -11 0 -20 -4 -20 -10 0 -5 -9 -10 -20 -10 -11
0 -20 -4 -20 -10 0 -5 -9 -10 -20 -10 -11 0 -20 -4 -20 -10 0 -5 -9 -10 -20
-10 -11 0 -20 -4 -20 -10 0 -5 -9 -10 -20 -10 -11 0 -20 -4 -20 -10 0 -5 -9
-10 -20 -10 -11 0 -20 -4 -20 -10 0 -5 -9 -10 -20 -10 -11 0 -20 -4 -20 -10 0
-5 -9 -10 -20 -10 -11 0 -20 -4 -20 -10 0 -5 -9 -10 -20 -10 -11 0 -20 -4 -20
-10 0 -5 -9 -10 -20 -10 -11 0 -20 -4 -20 -10 0 -5 -9 -10 -20 -10 -11 0 -20
-4 -20 -10 0 -5 -9 -10 -20 -10 -11 0 -20 -4 -20 -10 0 -5 -9 -10 -20 -10 -11
0 -20 -4 -20 -10 0 -5 -9 -10 -20 -10 -11 0 -20 -4 -20 -10 0 -5 -9 -10 -20
-10 -11 0 -20 -4 -20 -10 0 -5 -9 -10 -20 -10 -11 0 -20 -4 -20 -10 0 -5 -9
-10 -20 -10 -11 0 -20 -4 -20 -10 0 -5 -9 -10 -20 -10 -11 0 -20 -4 -20 -10 0
-5 -9 -10 -20 -10 -11 0 -20 -4 -20 -10 0 -5 -9 -10 -20 -10 -11 0 -20 -4 -20
-10 0 -5 -9 -10 -20 -10 -11 0 -20 -4 -20 -10 0 -5 -9 -10 -20 -10 -11 0 -20
-4 -20 -10 0 -5 -9 -10 -20 -10 -11 0 -20 -4 -20 -10 0 -5 -9 -10 -20 -10 -11
0 -20 -4 -20 -10 0 -5 -9 -10 -20 -10 -11 0 -20 -4 -20 -10 0 -5 -9 -10 -20
-10 -11 0 -20 -4 -20 -10 0 -5 -9 -10 -20 -10 -11 0 -20 -4 -20 -10 0 -5 -9
-10 -20 -10 -11 0 -20 -4 -20 -10 0 -5 -9 -10 -20 -10 -11 0 -20 -4 -20 -10 0
-5 -9 -10 -20 -10 -11 0 -20 -4 -20 -10 0 -5 -9 -10 -20 -10 -11 0 -20 -4 -20
-10 0 -5 -9 -10 -20 -10 -11 0 -20 -4 -20 -10 0 -5 -9 -10 -20 -10 -11 0 -20
-4 -20 -10 0 -5 -9 -10 -20 -10 -11 0 -20 -4 -20 -10 0 -5 -9 -10 -20 -10 -11
0 -20 -4 -20 -10 0 -5 -9 -10 -20 -10 -11 0 -20 -4 -20 -10 0 -5 -9 -10 -20
-10 -11 0 -20 -4 -20 -10 0 -5 -9 -10 -20 -10 -20 0 -20 -7 -20 -1394 l0
-1395 88 -41 c48 -23 112 -54 142 -70 202 -103 316 -160 324 -160 14 0 118
-52 151 -75 17 -12 118 -65 225 -117 262 -128 322 -158 479 -239 74 -38 141
-69 148 -69 10 0 13 69 15 334 l3 335 57 -27 58 -27 0 -341 0 -341 78 -41 c42
-22 115 -59 162 -82 47 -23 110 -54 140 -70 189 -97 204 -104 208 -92 2 7 12
12 23 12 10 0 19 5 19 10 0 6 9 10 20 10 11 0 20 5 20 10 0 6 9 10 19 10 11 0
21 3 23 8 4 10 1969 992 1986 992 6 0 12 5 12 10 0 6 9 10 20 10 11 0 20 5 20
10 0 6 9 10 20 10 11 0 20 5 20 10 0 6 9 10 20 10 20 0 20 7 20 1400 0 1393 0
1400 -20 1400 -11 0 -20 5 -20 10 0 6 -9 10 -20 10 -11 0 -20 5 -20 10 0 6 -9
10 -20 10 -11 0 -20 5 -20 10 0 6 -9 10 -20 10 -11 0 -20 5 -20 10 0 6 -9 10
-20 10 -11 0 -20 5 -20 10 0 6 -9 10 -20 10 -11 0 -20 5 -20 10 0 6 -9 10 -20
10 -11 0 -20 5 -20 10 0 6 -9 10 -20 10 -11 0 -20 5 -20 10 0 6 -9 10 -20 10
-11 0 -20 5 -20 10 0 6 -9 10 -20 10 -11 0 -20 5 -20 10 0 6 -9 10 -20 10 -11
0 -20 5 -20 10 0 6 -9 10 -20 10 -11 0 -20 5 -20 10 0 6 -9 10 -20 10 -11 0
-20 5 -20 10 0 6 -9 10 -20 10 -11 0 -20 5 -20 10 0 6 -9 10 -20 10 -11 0 -20
5 -20 10 0 6 -9 10 -20 10 -11 0 -20 5 -20 10 0 6 -9 10 -20 10 -11 0 -20 5
-20 10 0 6 -9 10 -20 10 -11 0 -20 5 -20 10 0 6 -9 10 -20 10 -11 0 -20 5 -20
10 0 6 -9 10 -20 10 -11 0 -20 5 -20 10 0 6 -9 10 -20 10 -11 0 -20 5 -20 10
0 6 -9 10 -20 10 -11 0 -20 5 -20 10 0 6 -9 10 -20 10 -11 0 -20 5 -20 10 0 6
-9 10 -20 10 -11 0 -20 5 -20 10 0 6 -9 10 -20 10 -11 0 -20 5 -20 10 0 6 -9
10 -20 10 -11 0 -20 5 -20 10 0 6 -9 10 -20 10 -11 0 -20 5 -20 10 0 6 -9 10
-20 10 -11 0 -20 5 -20 10 0 6 -9 10 -20 10 -11 0 -20 5 -20 10 0 6 -9 10 -20
10 -11 0 -20 5 -20 10 0 6 -9 10 -20 10 -11 0 -20 5 -20 10 0 6 -9 10 -20 10
-11 0 -20 5 -20 10 0 6 -9 10 -20 10 -11 0 -20 5 -20 10 0 6 -9 10 -20 10 -11
0 -20 5 -20 10 0 6 -9 10 -20 10 -11 0 -20 5 -20 10 0 6 -9 10 -20 10 -11 0
-20 5 -20 10 0 6 -9 10 -20 10 -11 0 -20 5 -20 10 0 6 -9 10 -20 10 -11 0 -20
5 -20 10 0 6 -9 10 -20 10 -11 0 -20 5 -20 10 0 6 -9 10 -20 10 -11 0 -20 5
-20 10 0 6 -9 10 -20 10 -11 0 -20 5 -20 10 0 6 -9 10 -20 10 -11 0 -20 5 -20
10 0 6 -9 10 -20 10 -11 0 -20 5 -20 10 0 6 -9 10 -20 10 -11 0 -20 5 -20 10
0 6 -9 10 -20 10 -11 0 -20 5 -20 10 0 6 -9 10 -20 10 -11 0 -20 5 -20 10 0 6
-9 10 -20 10 -11 0 -20 5 -20 10 0 6 -9 10 -20 10 -11 0 -20 5 -20 10 0 6 -9
10 -20 10 -11 0 -20 5 -20 10 0 6 -9 10 -20 10 -11 0 -20 5 -20 10 0 6 -9 10
-20 10 -11 0 -20 5 -20 10 0 6 -9 10 -20 10 -11 0 -20 5 -20 10 0 6 -9 10 -20
10 -11 0 -20 5 -20 10 0 6 -9 10 -20 10 -11 0 -20 5 -20 10 0 6 -9 10 -20 10
-11 0 -20 5 -20 10 0 6 -9 10 -20 10 -11 0 -20 5 -20 10 0 6 -9 10 -20 10 -11
0 -20 -4 -20 -10z m95 -170 c43 -22 84 -40 91 -40 8 0 14 -4 14 -10 0 -5 9
-10 20 -10 11 0 20 -4 20 -10 0 -5 9 -10 20 -10 11 0 20 -4 20 -10 0 -5 9 -10
20 -10 11 0 20 -4 20 -10 0 -5 9 -10 20 -10 11 0 20 -4 20 -10 0 -5 9 -10 20
-10 11 0 20 -4 20 -10 0 -5 9 -10 20 -10 11 0 20 -4 20 -9 0 -6 30 -24 68 -41
37 -17 103 -49 147 -71 44 -21 86 -39 93 -39 6 0 12 -4 12 -10 0 -5 9 -10 20
-10 11 0 20 -4 20 -10 0 -5 9 -10 19 -10 11 0 21 -3 23 -8 4 -10 170 -92 186
-92 6 0 12 -4 12 -10 0 -5 9 -10 20 -10 11 0 20 -4 20 -10 0 -5 9 -10 20 -10
11 0 20 -4 20 -10 0 -5 9 -10 20 -10 11 0 20 -4 20 -10 0 -5 9 -10 20 -10 11
0 20 -4 20 -10 0 -5 9 -10 20 -10 11 0 20 -4 20 -10 0 -5 9 -10 19 -10 11 0
21 -3 23 -8 4 -10 170 -92 186 -92 6 0 12 -4 12 -10 0 -5 9 -10 20 -10 11 0
20 -4 20 -10 0 -5 9 -10 20 -10 11 0 20 -4 20 -10 0 -5 9 -10 20 -10 11 0 20
-4 20 -10 0 -5 9 -10 20 -10 11 0 20 -4 20 -10 0 -5 9 -10 20 -10 11 0 20 -4
20 -10 0 -5 9 -10 19 -10 11 0 21 -3 23 -7 4 -11 128 -73 144 -73 8 0 14 -4
14 -10 0 -5 9 -10 20 -10 11 0 20 -4 20 -10 0 -5 9 -10 20 -10 11 0 20 -4 20
-10 0 -5 9 -10 20 -10 11 0 20 -3 20 -6 0 -11 -29 -34 -44 -34 -9 0 -16 -4
-16 -10 0 -5 -9 -10 -20 -10 -11 0 -20 -4 -20 -10 0 -5 -9 -10 -20 -10 -11 0
-20 -4 -20 -10 0 -5 -9 -10 -20 -10 -11 0 -20 -4 -20 -10 0 -5 -9 -10 -20 -10
-11 0 -20 -4 -20 -10 0 -5 -9 -10 -20 -10 -11 0 -20 -4 -20 -10 0 -5 -6 -10
-14 -10 -16 0 -140 -62 -144 -72 -2 -5 -12 -8 -23 -8 -10 0 -19 -4 -19 -10 0
-5 -9 -10 -20 -10 -11 0 -20 -4 -20 -10 0 -5 -9 -10 -20 -10 -11 0 -20 -4 -20
-10 0 -5 -6 -10 -14 -10 -16 0 -140 -62 -144 -72 -2 -5 -12 -8 -23 -8 -10 0
-19 -4 -19 -10 0 -5 -9 -10 -20 -10 -11 0 -20 -4 -20 -10 0 -5 -9 -10 -20 -10
-11 0 -20 -4 -20 -10 0 -5 -9 -10 -20 -10 -11 0 -20 -4 -20 -10 0 -5 -9 -10
-20 -10 -11 0 -20 -4 -20 -10 0 -5 -9 -10 -20 -10 -11 0 -20 -4 -20 -10 0 -5
-6 -10 -14 -10 -7 0 -48 -18 -90 -39 -42 -22 -76 -37 -76 -34 0 3 -8 -1 -17
-9 -10 -8 -54 -31 -98 -52 -138 -65 -185 -90 -185 -98 0 -4 -9 -8 -20 -8 -11
0 -20 -4 -20 -10 0 -5 -9 -10 -20 -10 -11 0 -20 -4 -20 -10 0 -5 -9 -10 -20
-10 -11 0 -20 -4 -20 -10 0 -5 -9 -10 -20 -10 -11 0 -20 -4 -20 -10 0 -5 -9
-10 -20 -10 -11 0 -20 -4 -20 -10 0 -5 -9 -10 -20 -10 -11 0 -20 -4 -20 -10 0
-5 -6 -10 -13 -10 -7 0 -76 -31 -152 -70 -76 -38 -146 -70 -156 -70 -9 0 -43
14 -74 30 -31 17 -63 30 -71 30 -8 0 -14 5 -14 10 0 6 -9 10 -20 10 -11 0 -20
5 -20 10 0 6 -9 10 -20 10 -11 0 -20 5 -20 10 0 6 -9 10 -19 10 -11 0 -21 3
-23 8 -4 10 -128 72 -144 72 -8 0 -14 5 -14 10 0 6 -9 10 -20 10 -11 0 -20 5
-20 10 0 6 -9 10 -20 10 -11 0 -20 5 -20 10 0 6 -9 10 -20 10 -11 0 -20 5 -20
10 0 6 -9 10 -20 10 -11 0 -20 5 -20 10 0 6 -9 10 -20 10 -11 0 -20 5 -20 10
0 6 -9 10 -19 10 -11 0 -21 3 -23 8 -4 10 -170 92 -185 92 -7 0 -13 5 -13 10
0 6 -9 10 -20 10 -11 0 -20 5 -20 10 0 6 -9 10 -20 10 -11 0 -20 5 -20 10 0 6
-9 10 -20 10 -11 0 -20 5 -20 10 0 6 -9 10 -20 10 -11 0 -20 5 -20 10 0 6 -9
10 -20 10 -11 0 -20 5 -20 10 0 6 -9 10 -19 10 -11 0 -21 4 -23 8 -1 4 -37 25
-78 46 -41 21 -104 53 -140 72 -36 19 -73 34 -82 34 -10 0 -18 5 -18 10 0 6
-9 10 -20 10 -11 0 -20 5 -20 10 0 6 -9 10 -20 10 -11 0 -20 5 -20 10 0 6 -9
10 -20 10 -11 0 -20 5 -20 10 0 6 -9 10 -20 10 -11 0 -20 5 -20 10 0 6 -9 10
-20 10 -11 0 -20 5 -20 10 0 6 -9 10 -19 10 -11 0 -21 4 -23 8 -1 4 -47 30
-101 57 -201 102 -192 97 -171 109 35 20 99 54 174 92 41 21 77 42 78 46 2 4
12 8 23 8 10 0 19 5 19 10 0 6 9 10 20 10 11 0 20 5 20 10 0 6 9 10 20 10 11
0 20 5 20 10 0 6 9 10 20 10 11 0 20 5 20 10 0 6 9 10 20 10 11 0 20 5 20 10
0 6 9 10 20 10 11 0 20 5 20 10 0 6 6 10 12 10 12 0 138 59 258 120 30 16 89
45 130 66 41 21 77 42 78 46 2 4 12 8 23 8 10 0 19 5 19 10 0 6 9 10 20 10 11
0 20 5 20 10 0 6 9 10 20 10 11 0 20 5 20 10 0 6 9 10 20 10 11 0 20 5 20 10
0 6 9 10 20 10 11 0 20 5 20 10 0 6 9 10 20 10 11 0 20 5 20 10 0 6 6 10 13
10 9 0 713 350 723 359 1 1 36 -17 79 -39z m-1745 -1780 c0 -5 9 -10 20 -10
11 0 20 -4 20 -10 0 -5 7 -10 16 -10 34 0 45 -27 42 -104 l-3 -75 -57 27 -58
27 0 83 c0 48 4 82 10 82 6 0 10 -4 10 -10z m58 -365 l42 -20 0 -257 c0 -142
-3 -258 -7 -257 -5 0 -30 13 -58 28 l-50 27 -3 257 c-2 242 -1 256 15 249 10
-4 37 -16 61 -27z m985 -323 c26 -13 50 -29 53 -35 2 -7 3 -83 2 -169 l-3
-157 -57 27 -58 27 0 168 c0 93 3 167 8 165 4 -2 29 -13 55 -26z m-1405 -337
l42 -20 0 -87 0 -87 -60 31 -60 31 0 83 c0 93 -8 88 78 49z m407 -24 l50 -27
3 -172 c1 -95 -1 -172 -5 -171 -5 0 -30 13 -58 28 l-50 27 -3 172 c-1 95 1
172 5 171 5 0 31 -13 58 -28z m1000 -160 l50 -27 3 -82 c2 -45 -1 -82 -5 -81
-4 0 -30 13 -58 28 l-50 27 -3 82 c-2 45 1 82 5 81 4 0 31 -13 58 -28z m-1417
-157 l52 -26 0 -84 c0 -46 -3 -84 -7 -83 -5 0 -30 13 -58 28 l-50 27 -3 82
c-2 45 1 82 6 82 4 0 31 -12 60 -26z m1415 -182 c26 -13 50 -29 53 -36 3 -7 4
-47 2 -89 l-3 -76 -57 27 -58 27 0 88 c0 49 3 87 8 85 4 -2 29 -13 55 -26z
m-985 -37 l42 -20 0 -82 c0 -92 8 -87 -77 -48 l-43 20 0 82 c0 92 -8 87 78 48z
m1420 -360 l42 -20 0 -87 0 -87 -60 31 -60 31 0 83 c0 93 -8 88 78 49z m-10
-341 l52 -26 0 -84 c0 -46 -3 -84 -7 -83 -5 0 -30 13 -58 28 l-50 27 -3 82
c-2 45 1 82 6 82 4 0 31 -12 60 -26z"/>
<path d="M2265 4657 c-154 -78 -281 -145 -283 -149 -2 -5 -12 -8 -23 -8 -10 0
-19 -4 -19 -10 0 -5 -9 -10 -20 -10 -11 0 -20 -4 -20 -10 0 -5 -9 -10 -20 -10
-11 0 -20 -4 -20 -10 0 -5 -9 -10 -20 -10 -11 0 -20 -4 -20 -10 0 -5 -9 -10
-20 -10 -11 0 -20 -4 -20 -10 0 -5 -9 -10 -20 -10 -11 0 -20 -4 -20 -10 0 -5
-6 -10 -12 -10 -12 0 -138 -59 -258 -120 -30 -16 -89 -45 -130 -66 -41 -21
-76 -42 -78 -46 -2 -4 -12 -8 -23 -8 -10 0 -19 -4 -19 -10 0 -5 -9 -10 -20
-10 -11 0 -20 -4 -20 -10 0 -5 -9 -10 -20 -10 -11 0 -20 -4 -20 -10 0 -5 -9
-10 -20 -10 -11 0 -20 -4 -20 -10 0 -5 -9 -10 -20 -10 -11 0 -20 -4 -20 -10 0
-5 -9 -10 -20 -10 -11 0 -20 -4 -20 -10 0 -5 -6 -10 -12 -10 -15 0 -147 -63
-147 -70 0 -7 132 -70 147 -70 6 0 12 -4 12 -10 0 -5 9 -10 20 -10 11 0 20 -4
20 -10 0 -5 9 -10 20 -10 11 0 20 -4 20 -10 0 -5 9 -10 20 -10 11 0 20 -4 20
-10 0 -5 9 -10 20 -10 11 0 20 -4 20 -10 0 -5 9 -10 20 -10 11 0 20 -4 20 -10
0 -5 9 -10 20 -10 11 0 20 -3 20 -8 0 -8 6 -11 107 -60 37 -18 95 -47 127 -63
32 -16 65 -29 72 -29 8 0 14 -4 14 -10 0 -5 9 -10 20 -10 11 0 20 -4 20 -10 0
-5 9 -10 20 -10 11 0 20 -4 20 -10 0 -5 9 -10 20 -10 11 0 20 -4 20 -10 0 -5
9 -10 20 -10 11 0 20 -4 20 -10 0 -5 9 -10 20 -10 11 0 20 -4 20 -10 0 -5 9
-10 20 -10 11 0 20 -4 20 -10 0 -5 9 -10 19 -10 11 0 21 -3 23 -7 4 -11 128
-73 144 -73 8 0 14 -4 14 -10 0 -5 9 -10 20 -10 11 0 20 -4 20 -10 0 -5 9 -10
20 -10 11 0 20 -4 20 -10 0 -5 9 -10 20 -10 11 0 20 -4 20 -10 0 -5 9 -10 20
-10 11 0 20 -4 20 -10 0 -5 9 -10 20 -10 11 0 20 -4 20 -10 0 -5 9 -10 19 -10
11 0 21 -3 23 -8 4 -10 170 -92 186 -92 6 0 12 -4 12 -10 0 -5 9 -10 20 -10
11 0 20 -4 20 -10 0 -5 7 -10 16 -10 9 0 23 -8 29 -17 12 -16 15 -16 32 -2 10
8 41 26 68 40 28 13 52 27 53 32 2 4 12 7 23 7 10 0 19 5 19 10 0 6 9 10 20
10 11 0 20 5 20 10 0 6 9 10 20 10 11 0 20 5 20 10 0 6 9 10 20 10 11 0 20 5
20 10 0 6 9 10 20 10 11 0 20 5 20 10 0 6 9 10 20 10 11 0 20 5 20 10 0 6 6
10 12 10 12 0 141 59 178 80 49 29 266 134 273 132 4 -1 10 5 13 13 4 8 15 15
25 15 10 0 19 5 19 10 0 6 9 10 20 10 11 0 20 5 20 10 0 6 9 10 20 10 11 0 20
5 20 10 0 6 9 10 20 10 11 0 20 5 20 10 0 6 9 10 20 10 11 0 20 5 20 10 0 6 9
10 20 10 11 0 20 5 20 10 0 6 6 10 13 10 15 0 181 82 185 92 2 5 12 8 23 8 10
0 19 5 19 10 0 6 9 10 20 10 11 0 20 5 20 10 0 6 6 10 13 10 15 0 181 82 185
92 2 5 12 8 23 8 10 0 19 5 19 10 0 6 9 10 20 10 11 0 20 5 20 10 0 6 9 10 20
10 11 0 20 3 20 8 -1 8 -130 72 -148 72 -6 0 -12 5 -12 10 0 6 -9 10 -20 10
-11 0 -20 5 -20 10 0 6 -9 10 -20 10 -11 0 -20 5 -20 10 0 6 -9 10 -20 10 -11
0 -20 5 -20 10 0 6 -9 10 -20 10 -11 0 -20 5 -20 10 0 6 -9 10 -20 10 -11 0
-20 5 -20 10 0 6 -9 10 -19 10 -11 0 -21 3 -23 8 -4 10 -170 92 -185 92 -7 0
-13 5 -13 10 0 6 -9 10 -20 10 -11 0 -20 5 -20 10 0 6 -9 10 -20 10 -11 0 -20
5 -20 10 0 6 -9 10 -20 10 -11 0 -20 5 -20 10 0 6 -9 10 -20 10 -11 0 -20 5
-20 10 0 6 -9 10 -20 10 -11 0 -20 5 -20 10 0 6 -9 10 -19 10 -11 0 -21 3 -23
8 -4 10 -128 72 -144 72 -8 0 -14 5 -14 10 0 6 -9 10 -20 10 -11 0 -20 5 -20
10 0 6 -9 10 -20 10 -11 0 -20 5 -20 10 0 6 -9 10 -19 10 -11 0 -21 4 -23 8
-1 4 -37 25 -78 46 -41 21 -104 53 -140 72 -36 19 -73 34 -82 34 -10 0 -18 5
-18 10 0 6 -9 10 -20 10 -11 0 -20 5 -20 10 0 6 -9 10 -20 10 -11 0 -20 5 -20
10 0 6 -9 10 -20 10 -11 0 -20 5 -20 10 0 6 -9 10 -20 10 -11 0 -20 5 -20 10
0 6 -9 10 -20 10 -11 0 -20 5 -20 10 0 6 -9 10 -20 10 -11 0 -20 5 -20 10 0
22 -46 2 -315 -133z m356 -44 c32 -16 59 -32 59 -38 0 -5 -25 -21 -55 -35 -30
-14 -55 -27 -55 -30 0 -3 25 -16 55 -30 30 -14 55 -29 55 -35 0 -9 -109 -65
-127 -65 -4 0 -69 30 -143 68 -95 47 -128 68 -112 70 12 2 22 8 22 13 0 5 9 9
20 9 11 0 20 5 20 10 0 6 9 10 20 10 11 0 20 5 20 10 0 6 8 10 18 11 9 0 40
13 67 29 28 16 56 29 63 29 8 1 40 -11 73 -26z m572 -281 c26 -12 47 -28 47
-35 0 -6 -25 -23 -55 -37 -30 -14 -55 -27 -55 -30 0 -3 27 -18 60 -33 33 -15
60 -31 60 -36 0 -4 -27 -22 -60 -38 l-60 -31 -67 34 c-38 19 -76 34 -85 34
-10 0 -18 5 -18 10 0 6 -9 10 -20 10 -11 0 -20 5 -20 10 0 6 -9 10 -20 10 -11
0 -20 5 -20 10 0 6 -9 10 -20 10 -11 0 -20 5 -20 10 0 6 9 10 20 10 11 0 20 5
20 10 0 6 9 10 20 10 11 0 20 5 20 10 0 6 7 10 15 10 8 0 23 4 33 9 37 20 128
60 147 64 24 6 20 7 78 -21z m-1121 -4 c26 -13 48 -27 48 -33 0 -5 -25 -21
-55 -35 -30 -14 -55 -27 -55 -30 0 -3 25 -16 55 -30 30 -14 55 -30 55 -37 0
-7 -29 -26 -64 -42 l-64 -31 -58 29 c-33 16 -89 43 -125 60 -75 35 -105 61
-70 61 11 0 21 5 21 10 0 6 9 10 20 10 11 0 20 5 20 10 0 6 9 10 20 10 11 0
20 5 20 10 0 6 8 10 18 10 9 0 37 11 62 24 58 31 93 31 152 4z m-575 -285 c29
-13 55 -27 57 -31 2 -4 -20 -19 -50 -32 -30 -14 -53 -29 -51 -35 2 -5 24 -20
50 -33 26 -13 47 -27 47 -31 0 -4 -27 -22 -60 -38 l-60 -31 -67 34 c-38 19
-76 34 -85 34 -10 0 -18 5 -18 10 0 6 -9 10 -20 10 -11 0 -20 5 -20 10 0 6 -7
10 -16 10 -15 0 -44 23 -44 34 0 3 9 6 20 6 11 0 20 5 20 10 0 6 9 10 20 10
11 0 20 5 20 10 0 6 9 10 20 10 11 0 20 5 20 10 0 6 8 10 18 11 9 0 40 13 67
28 55 30 56 30 132 -6z m1135 5 c26 -13 48 -27 48 -33 0 -5 -25 -21 -55 -35
-30 -14 -55 -27 -55 -30 0 -3 27 -18 60 -33 33 -15 60 -31 60 -36 0 -4 -29
-23 -65 -41 l-64 -33 -74 37 c-40 20 -81 36 -90 36 -9 0 -17 5 -17 10 0 6 -9
10 -20 10 -11 0 -20 5 -20 10 0 6 -7 10 -16 10 -15 0 -44 23 -44 34 0 3 9 6
20 6 11 0 20 5 20 10 0 6 9 10 20 10 11 0 20 5 20 10 0 6 9 10 20 10 11 0 20
5 20 10 0 6 8 10 18 10 9 0 37 11 62 24 58 31 93 31 152 4z m1126 -4 c29 -14
54 -29 56 -33 2 -3 -20 -18 -50 -31 -30 -14 -53 -29 -51 -35 2 -5 24 -20 50
-33 26 -13 47 -27 47 -31 0 -4 -27 -22 -60 -38 l-60 -31 -67 34 c-38 19 -76
34 -85 34 -10 0 -18 5 -18 10 0 6 -9 10 -20 10 -11 0 -20 5 -20 10 0 6 -7 10
-16 10 -15 0 -44 23 -44 34 0 3 9 6 20 6 11 0 20 5 20 10 0 6 9 10 20 10 11 0
20 5 20 10 0 6 6 10 13 10 14 0 55 18 117 50 48 25 68 24 128 -6z m-1711 -269
c78 -39 80 -47 17 -75 -29 -14 -52 -29 -51 -35 2 -5 21 -19 43 -30 81 -42 80
-39 27 -65 -26 -13 -56 -31 -65 -39 -16 -12 -20 -12 -35 1 -25 20 -127 68
-146 68 -10 0 -17 5 -17 10 0 6 -9 10 -20 10 -11 0 -20 5 -20 10 0 6 -9 10
-19 10 -15 0 -39 29 -29 34 2 1 26 13 53 26 28 14 52 28 53 33 2 4 11 7 20 8
10 0 40 13 67 29 28 16 55 29 61 29 5 1 33 -10 61 -24z m1151 -11 c29 -14 54
-29 56 -33 2 -3 -20 -18 -50 -31 -30 -14 -53 -29 -51 -35 2 -5 24 -20 50 -33
26 -13 47 -29 47 -35 0 -11 -107 -67 -127 -67 -5 0 -40 16 -79 35 -38 19 -77
35 -86 35 -10 0 -18 5 -18 10 0 6 -9 10 -20 10 -11 0 -20 5 -20 10 0 6 -9 10
-20 10 -13 0 -20 7 -20 20 0 13 7 20 20 20 11 0 20 5 20 10 0 6 9 10 20 10 11
0 20 5 20 10 0 6 9 10 20 10 11 0 20 5 20 10 0 6 8 10 18 10 9 0 37 11 62 24
59 31 76 31 138 0z m-572 -285 c32 -17 60 -32 62 -33 1 -2 -22 -16 -53 -30
-30 -15 -55 -31 -55 -36 0 -5 25 -21 55 -35 30 -15 55 -30 55 -34 0 -8 -114
-61 -132 -61 -7 0 -44 16 -82 35 -39 19 -76 35 -83 35 -7 0 -13 5 -13 10 0 6
-9 10 -20 10 -11 0 -20 5 -20 10 0 6 -9 10 -20 10 -42 0 -18 30 48 60 37 17
92 44 122 60 30 15 60 29 66 29 7 1 38 -13 70 -30z"/>
</g>
</svg>
